

<svg>

<!-- Логотип -->
<symbol id="logo" viewBox="0 0 40 40" xmlns="http://www.w3.org/2000/svg">
<circle cx="20" cy="20" r="20" fill="#394150"/>
<g><path d="M10.9946 29.0261H28.9859C29.2247 29.0294 29.4569 28.9469 29.6402 28.7936C29.8236 28.6403 29.946 28.4264 29.9854 28.1905L31.9844 16.1816C32.0182 15.9923 31.9967 15.7974 31.9228 15.6201C31.8487 15.4427 31.7253 15.2904 31.5672 15.1814C31.4091 15.0725 31.2229 15.0114 31.0311 15.0055C30.8392 14.9996 30.6497 15.0492 30.4852 15.1483L24.4531 18.6008L20.9023 10.6074C20.8234 10.4313 20.6954 10.2817 20.5336 10.1768C20.3718 10.0719 20.1831 10.0161 19.9903 10.0161C19.7975 10.0161 19.6088 10.0719 19.447 10.1768C19.2851 10.2817 19.1571 10.4313 19.0782 10.6074L15.5274 18.6008L9.49535 15.1483C9.33119 15.0544 9.1438 15.009 8.95492 15.0175C8.76604 15.0259 8.58343 15.0878 8.42828 15.196C8.27314 15.3042 8.15182 15.4542 8.07841 15.6287C8.00501 15.8031 7.98252 15.9948 8.01357 16.1816L10.0126 28.1905C10.0515 28.4234 10.1714 28.635 10.3511 28.7879C10.5309 28.9408 10.7588 29.0252 10.9946 29.0261ZM15.4925 20.8876C15.6136 20.9566 15.7478 20.9995 15.8864 21.0136C16.0251 21.0277 16.1652 21.0126 16.2977 20.9692C16.4301 20.9259 16.5521 20.8553 16.6557 20.7619C16.7593 20.6686 16.8423 20.5546 16.8992 20.4272L19.9903 13.477L23.0763 20.4272C23.1332 20.5552 23.2163 20.6699 23.3203 20.7637C23.4243 20.8575 23.5468 20.9284 23.6799 20.9718C23.813 21.0152 23.9537 21.0301 24.093 21.0156C24.2322 21.0011 24.3668 20.9575 24.4881 20.8876L29.6531 17.9304L28.1388 27.0246H11.8417L10.3274 17.9304L15.4925 20.8876Z" fill="#FFC107"/></g>
</symbol>


<!-- Cтрелочка -->
<symbol id="arrow" viewBox="0 0 14 8" xmlns="http://www.w3.org/2000/svg">
<g><path fill-rule="evenodd" clip-rule="evenodd" d="M7.16584 7.99991L14 1.33329L12.6332 -3.05176e-05L6.99998 5.49507L1.36684 6.18328e-05L0 1.33338L6.8342 8L7.00007 7.8382L7.16584 7.99991Z"/></g>
</symbol>




</svg>