<svg width="26" height="26" viewBox="0 0 26 26" fill="none" xmlns="http://www.w3.org/2000/svg">
<path d="M13 1.61376C18.8947 1.61376 23.7338 6.45883 23.7338 12.5067C23.7338 18.5225 18.9329 23.3995 13 23.3995C7.07435 23.3995 2.26622 18.5299 2.26622 12.5067C2.26622 6.49524 7.0667 1.61376 13 1.61376ZM13 0C6.19413 0 0.676025 5.60192 0.676025 12.5067C0.676025 19.4154 6.19413 25.0133 13 25.0133C19.8059 25.0133 25.324 19.4154 25.324 12.5067C25.324 5.60192 19.8059 0 13 0ZM11.211 17.3479H11.8074V11.2963H11.211C10.8817 11.2963 10.6147 11.0254 10.6147 10.6912V10.2877C10.6147 9.95353 10.8817 9.68257 11.211 9.68257H13.5963C13.9256 9.68257 14.1926 9.95353 14.1926 10.2877V17.3479H14.789C15.1183 17.3479 15.3853 17.6189 15.3853 17.9531V18.3565C15.3853 18.6907 15.1183 18.9617 14.789 18.9617H11.211C10.8817 18.9617 10.6147 18.6907 10.6147 18.3565V17.9531C10.6147 17.6189 10.8817 17.3479 11.211 17.3479ZM13 5.24473C12.1218 5.24473 11.4098 5.96724 11.4098 6.85849C11.4098 7.74974 12.1218 8.47225 13 8.47225C13.8782 8.47225 14.5902 7.74974 14.5902 6.85849C14.5902 5.96724 13.8782 5.24473 13 5.24473Z" fill="white"/>
</svg>
