<svg width="22" height="20" viewBox="0 0 22 20" fill="none" xmlns="http://www.w3.org/2000/svg">
<path d="M20.8733 6.69961L14.8656 5.86719L12.1809 0.695703C11.9395 0.233594 11.4687 0 10.998 0C10.5301 0 10.0626 0.230469 9.82039 0.695703L7.13483 5.8668L1.12669 6.69844C0.0492686 6.84687 -0.382522 8.1082 0.39856 8.83086L4.74479 12.8543L3.71621 18.5371C3.57009 19.3488 4.25102 20 5.01363 20C5.21599 20 5.42408 19.9543 5.62397 19.8535L10.9988 17.1707L16.3732 19.8543C16.5727 19.9539 16.7804 19.9992 16.9819 19.9992C17.7453 19.9992 18.4275 19.3504 18.2814 18.5383L17.254 12.8551L21.6011 8.83242C22.3826 8.10977 21.9508 6.84805 20.8733 6.69961ZM15.8765 11.5121L15.1328 12.2004L15.3085 13.1723L16.1097 17.6039L11.9178 15.5105L10.9992 15.052L11.0004 2.66172L13.0949 6.69648L13.5538 7.58047L14.5804 7.72266L19.2689 8.37227L15.8765 11.5121Z" fill="#FFC107"/>
</svg>
