<svg width="22" height="20" viewBox="0 0 22 20" fill="none" xmlns="http://www.w3.org/2000/svg">
<path d="M20.1705 6.69923L14.5903 5.86719L12.0962 0.695319C11.6493 -0.226556 10.3545 -0.238274 9.90383 0.695319L7.40974 5.86719L1.82953 6.69923C0.828833 6.84766 0.427792 8.10938 1.15349 8.83204L5.19064 12.8555L4.23578 18.5391C4.0639 19.5664 5.12189 20.3359 6.008 19.8555L11 17.1719L15.992 19.8555C16.8781 20.332 17.9361 19.5664 17.7642 18.5391L16.8094 12.8555L20.8465 8.83204C21.5722 8.10938 21.1712 6.84766 20.1705 6.69923ZM14.8424 12.1992L15.7476 17.6055L11 15.0547L6.25244 17.6055L7.15765 12.1992L3.31529 8.3711L8.62432 7.58204L11 2.66016L13.3757 7.58204L18.6847 8.3711L14.8424 12.1992Z" fill="#FFC107"/>
</svg>
